<svg xmlns="http://www.w3.org/2000/svg" width="200" height="38.8" viewBox="0 0 200 38.8"><path d="M9 22.7c.5-2.4 1.4-4.3 2.5-5.8 2-2.6 4.3-3.9 6.8-3.9s4.2 1.3 5 3.9c.2.7.3 1.5.3 2.4 0 1-.1 2.1-.4 3.3-.6 2.4-1.4 4.3-2.5 5.7-2.1 2.6-4.3 3.9-6.8 3.9s-4.1-1.3-5-3.9c-.2-.7-.3-1.5-.3-2.3 0-.8.1-2 .4-3.3zm3.4 0c-.3 1.4-.5 2.5-.5 3.4 0 .4 0 .8.1 1.1.4 1.5 1.3 2.2 2.5 2.2 1.3 0 2.4-.7 3.6-2.2.7-.9 1.3-2.5 1.8-4.5.3-1.4.5-2.5.5-3.4 0-.5 0-.8-.1-1.2-.4-1.5-1.2-2.2-2.5-2.2s-2.5.8-3.6 2.3c-.8.9-1.3 2.4-1.8 4.5zM37.8 29.1H42v.2L40 32h-7.9v-.2l1.9-2.7c1.6-1 2.7-1.9 3.4-2.8.9-1.1 1.4-2.3 1.7-3.7.3-1.4.5-2.5.5-3.4 0-.5 0-.8-.1-1.2-.4-1.5-1.2-2.2-2.5-2.2s-2.5.7-3.6 2.2c-.7.9-1.3 2.4-1.7 4.5l-2 8.5-3.6 1.5H26l2.3-10c.5-2.4 1.4-4.3 2.5-5.7 2-2.6 4.3-3.9 6.8-3.9 2.6 0 4.2 1.3 5 3.9.2.8.3 1.6.3 2.5 0 1-.1 2.1-.4 3.2-.5 2.9-2.1 5.1-4.7 6.6zM45.9 32.7L49 19.2c.8-3.3 1.9-5.9 3.5-7.9 2.7-3.5 5.7-5.2 9.1-5.2 3.4 0 5.6 1.7 6.7 5.2l-3 1.3H65c-.6-2.4-2-3.6-4.1-3.6s-4 1.2-5.8 3.7c-.9 1.3-1.7 3-2.3 5.1h9.6v.2l-1.9 2.7h-8.4l-2.4 10.5-3.6 1.5h-.2zM67.6 22.7c.5-2.4 1.4-4.3 2.5-5.8 2-2.6 4.3-3.9 6.8-3.9s4.2 1.3 5 3.9c.2.7.3 1.5.3 2.4 0 1-.1 2.1-.4 3.3-.6 2.4-1.4 4.3-2.5 5.7-2.1 2.6-4.3 3.9-6.8 3.9s-4.1-1.3-5-3.9c-.2-.7-.3-1.5-.3-2.3 0-.8.1-2 .4-3.3zm3.4 0c-.3 1.4-.5 2.5-.5 3.4 0 .4 0 .8.1 1.1.4 1.5 1.3 2.2 2.5 2.2s2.4-.7 3.6-2.2c.7-.9 1.3-2.5 1.8-4.5.3-1.4.5-2.5.5-3.4 0-.5 0-.8-.1-1.2-.4-1.5-1.2-2.2-2.5-2.2s-2.5.8-3.6 2.3c-.7.9-1.3 2.4-1.8 4.5zM84.7 32.7l2.3-10c.5-2.4 1.4-4.3 2.5-5.7 2-2.6 4.3-3.9 6.8-3.9h2.3l-.1.2-1.9 2.7h-1c-1.3 0-2.5.7-3.6 2.2-.7.9-1.3 2.4-1.7 4.5l-2 8.5-3.6 1.5zM111.2 25.6c-.5 1.1-1 2-1.6 2.8-2 2.6-4.3 3.9-6.8 3.9s-4.1-1.3-5-3.9c-.2-.7-.3-1.5-.3-2.3 0-1 .1-2.2.4-3.4.5-2.3 1.4-4.2 2.5-5.7 2-2.6 4.3-3.9 6.8-3.9 1.9 0 3.4.6 4.3 1.8.7.9 1.1 1.9 1.1 3 0 .4-.1.8-.2 1.2-.4 1.7-1.4 3.2-2.8 4.5-1.4 1.3-3.2 1.9-5.3 1.9H103l.1-.2 1.9-2.7c1.2 0 2.2-.3 2.8-1 .7-.6 1.1-1.5 1.4-2.6.1-.3.1-.5.1-.8 0-.6-.2-1-.5-1.4-.5-.6-1.2-.9-2.2-.9-1.4 0-2.6.7-3.6 2.2-.7 1.1-1.3 2.6-1.7 4.5-.3 1.4-.5 2.5-.5 3.4 0 .4 0 .8.1 1.1.4 1.5 1.3 2.2 2.5 2.2 1.3 0 2.5-.7 3.6-2.2l4-1.6h.2zM119.5 14.2l3.6-1.5h.2l-2.3 10c-.3 1.4-.5 2.5-.5 3.4 0 .4 0 .8.1 1.1.4 1.5 1.3 2.2 2.5 2.2 1.3 0 2.5-.7 3.6-2.2.7-.9 1.3-2.4 1.8-4.5.3-1.3.4-2.4.4-3.3 0-.5 0-.9-.1-1.2-.3-1.5-1-2.4-2.3-2.9l1.8-2.5h.2c1.8.8 2.9 2.2 3.4 4.2.2.8.3 1.6.3 2.5 0 1-.1 2.1-.4 3.2-.5 2.3-1.4 4.2-2.6 5.7-2 2.6-4.3 3.9-6.8 3.9s-4.2-1.3-5-3.9c-.2-.7-.3-1.5-.3-2.4 0-1 .1-2.1.4-3.4l2-8.4zM150.2 25.6c-.5 1.1-1 2-1.6 2.8-2 2.6-4.3 3.9-6.8 3.9s-4.1-1.3-5-3.9c-.2-.7-.3-1.5-.3-2.3 0-1 .1-2.2.4-3.4.5-2.3 1.4-4.2 2.5-5.7 2-2.6 4.3-3.9 6.8-3.9 1.9 0 3.4.6 4.3 1.8.7.9 1.1 1.9 1.1 3 0 .4-.1.8-.2 1.2-.4 1.7-1.4 3.2-2.8 4.5-1.4 1.3-3.2 1.9-5.3 1.9H142l.1-.2 1.9-2.7c1.2 0 2.2-.3 2.8-1 .7-.6 1.1-1.5 1.4-2.6.1-.3.1-.5.1-.8 0-.6-.2-1-.5-1.4-.5-.6-1.2-.9-2.2-.9-1.4 0-2.6.7-3.6 2.2-.7 1.1-1.3 2.6-1.7 4.5-.3 1.4-.5 2.5-.5 3.4 0 .4 0 .8.1 1.1.4 1.5 1.3 2.2 2.5 2.2 1.3 0 2.5-.7 3.6-2.2l4-1.6h.2zM153.7 32.7l2.3-10c.5-2.4 1.4-4.3 2.5-5.7 2-2.6 4.3-3.9 6.8-3.9h2.3l-.1.2-1.9 2.7h-1c-1.3 0-2.5.7-3.6 2.2-.7.9-1.3 2.4-1.7 4.5l-2 8.5-3.6 1.5zM167 30.3c.1-.6.4-1.1.9-1.5.5-.4 1-.6 1.6-.6.6 0 1 .2 1.3.6.2.3.3.6.3 1l-.1.5c-.2.6-.5 1.1-.9 1.5-.5.4-1 .6-1.6.6-.6 0-1-.2-1.3-.6-.2-.3-.3-.6-.3-.9l.1-.6zM177.1 30.3c.1-.6.4-1.1.9-1.5.5-.4 1-.6 1.6-.6.6 0 1 .2 1.3.6.2.3.3.6.3 1l-.1.5c-.2.6-.5 1.1-.9 1.5-.5.4-1 .6-1.6.6-.6 0-1-.2-1.3-.6-.2-.3-.3-.6-.3-.9l.1-.6zM187.3 30.3c.1-.6.4-1.1.9-1.5.5-.4 1-.6 1.6-.6s1 .2 1.3.6c.2.3.3.6.3 1l-.1.5c-.2.6-.5 1.1-.9 1.5-.5.4-1 .6-1.6.6-.6 0-1-.2-1.3-.6-.2-.3-.3-.6-.3-.9l.1-.6z"/></svg>