<?xml version="1.0" encoding="utf-8"?>
<!-- Generator: Adobe Illustrator 16.0.0, SVG Export Plug-In . SVG Version: 6.00 Build 0)  -->
<!DOCTYPE svg PUBLIC "-//W3C//DTD SVG 1.1//EN" "http://www.w3.org/Graphics/SVG/1.1/DTD/svg11.dtd">
<svg version="1.1" id="Layer_1" xmlns="http://www.w3.org/2000/svg" xmlns:xlink="http://www.w3.org/1999/xlink" x="0px" y="0px"
	 width="200px" height="38.8px" viewBox="0 0 200 38.8" style="enable-background:new 0 0 200 38.8;" xml:space="preserve">
<g>
	<path d="M9,22.7c0.5-2.4,1.4-4.3,2.5-5.8c2-2.6,4.3-3.9,6.8-3.9s4.2,1.3,5,3.9c0.2,0.7,0.3,1.5,0.3,2.4c0,1-0.1,2.1-0.4,3.3
		c-0.6,2.4-1.4,4.3-2.5,5.7c-2.1,2.6-4.3,3.9-6.8,3.9c-2.5,0-4.1-1.3-5-3.9c-0.2-0.7-0.3-1.5-0.3-2.3C8.6,25.2,8.7,24,9,22.7z
		 M12.4,22.7c-0.3,1.4-0.5,2.5-0.5,3.4c0,0.4,0,0.8,0.1,1.1c0.4,1.5,1.3,2.2,2.5,2.2c1.3,0,2.4-0.7,3.6-2.2c0.7-0.9,1.3-2.5,1.8-4.5
		c0.3-1.4,0.5-2.5,0.5-3.4c0-0.5,0-0.8-0.1-1.2c-0.4-1.5-1.2-2.2-2.5-2.2c-1.3,0-2.5,0.8-3.6,2.3C13.4,19.1,12.9,20.6,12.4,22.7z"/>
	<path d="M37.8,29.1H42l0,0.2L40,32h-7.9l0-0.2l1.9-2.7c1.6-1,2.7-1.9,3.4-2.8c0.9-1.1,1.4-2.3,1.7-3.7c0.3-1.4,0.5-2.5,0.5-3.4
		c0-0.5,0-0.8-0.1-1.2c-0.4-1.5-1.2-2.2-2.5-2.2c-1.3,0-2.5,0.7-3.6,2.2c-0.7,0.9-1.3,2.4-1.7,4.5l-2,8.5l-3.6,1.5H26l2.3-10
		c0.5-2.4,1.4-4.3,2.5-5.7c2-2.6,4.3-3.9,6.8-3.9c2.6,0,4.2,1.3,5,3.9c0.2,0.8,0.3,1.6,0.3,2.5c0,1-0.1,2.1-0.4,3.2
		C42,25.4,40.4,27.6,37.8,29.1z"/>
	<path d="M45.9,32.7L49,19.2c0.8-3.3,1.9-5.9,3.5-7.9c2.7-3.5,5.7-5.2,9.1-5.2c3.4,0,5.6,1.7,6.7,5.2l-3,1.3H65
		C64.4,10.2,63,9,60.9,9s-4,1.2-5.8,3.7c-0.9,1.3-1.7,3-2.3,5.1h9.6l0,0.2l-1.9,2.7h-8.4l-2.4,10.5l-3.6,1.5H45.9z"/>
	<path d="M67.6,22.7c0.5-2.4,1.4-4.3,2.5-5.8c2-2.6,4.3-3.9,6.8-3.9c2.5,0,4.2,1.3,5,3.9c0.2,0.7,0.3,1.5,0.3,2.4
		c0,1-0.1,2.1-0.4,3.3c-0.6,2.4-1.4,4.3-2.5,5.7c-2.1,2.6-4.3,3.9-6.8,3.9c-2.5,0-4.1-1.3-5-3.9c-0.2-0.7-0.3-1.5-0.3-2.3
		C67.2,25.2,67.3,24,67.6,22.7z M71,22.7c-0.3,1.4-0.5,2.5-0.5,3.4c0,0.4,0,0.8,0.1,1.1c0.4,1.5,1.3,2.2,2.5,2.2s2.4-0.7,3.6-2.2
		c0.7-0.9,1.3-2.5,1.8-4.5c0.3-1.4,0.5-2.5,0.5-3.4c0-0.5,0-0.8-0.1-1.2c-0.4-1.5-1.2-2.2-2.5-2.2c-1.3,0-2.5,0.8-3.6,2.3
		C72.1,19.1,71.5,20.6,71,22.7z"/>
	<path d="M84.7,32.7l2.3-10c0.5-2.4,1.4-4.3,2.5-5.7c2-2.6,4.3-3.9,6.8-3.9h2.3l-0.1,0.2l-1.9,2.7h-1c-1.3,0-2.5,0.7-3.6,2.2
		c-0.7,0.9-1.3,2.4-1.7,4.5l-2,8.5l-3.6,1.5H84.7z"/>
	<path d="M111.2,25.6c-0.5,1.1-1,2-1.6,2.8c-2,2.6-4.3,3.9-6.8,3.9c-2.5,0-4.1-1.3-5-3.9c-0.2-0.7-0.3-1.5-0.3-2.3
		c0-1,0.1-2.2,0.4-3.4c0.5-2.3,1.4-4.2,2.5-5.7c2-2.6,4.3-3.9,6.8-3.9c1.9,0,3.4,0.6,4.3,1.8c0.7,0.9,1.1,1.9,1.1,3
		c0,0.4-0.1,0.8-0.2,1.2c-0.4,1.7-1.4,3.2-2.8,4.5c-1.4,1.3-3.2,1.9-5.3,1.9H103l0.1-0.2l1.9-2.7c1.2,0,2.2-0.3,2.8-1
		c0.7-0.6,1.1-1.5,1.4-2.6c0.1-0.3,0.1-0.5,0.1-0.8c0-0.6-0.2-1-0.5-1.4c-0.5-0.6-1.2-0.9-2.2-0.9c-1.4,0-2.6,0.7-3.6,2.2
		c-0.7,1.1-1.3,2.6-1.7,4.5c-0.3,1.4-0.5,2.5-0.5,3.4c0,0.4,0,0.8,0.1,1.1c0.4,1.5,1.3,2.2,2.5,2.2c1.3,0,2.5-0.7,3.6-2.2l4-1.6
		H111.2z"/>
	<path d="M119.5,14.2l3.6-1.5h0.2l-2.3,10c-0.3,1.4-0.5,2.5-0.5,3.4c0,0.4,0,0.8,0.1,1.1c0.4,1.5,1.3,2.2,2.5,2.2
		c1.3,0,2.5-0.7,3.6-2.2c0.7-0.9,1.3-2.4,1.8-4.5c0.3-1.3,0.4-2.4,0.4-3.3c0-0.5,0-0.9-0.1-1.2c-0.3-1.5-1-2.4-2.3-2.9l1.8-2.5h0.2
		c1.8,0.8,2.9,2.2,3.4,4.2c0.2,0.8,0.3,1.6,0.3,2.5c0,1-0.1,2.1-0.4,3.2c-0.5,2.3-1.4,4.2-2.6,5.7c-2,2.6-4.3,3.9-6.8,3.9
		c-2.5,0-4.2-1.3-5-3.9c-0.2-0.7-0.3-1.5-0.3-2.4c0-1,0.1-2.1,0.4-3.4L119.5,14.2z"/>
	<path d="M150.2,25.6c-0.5,1.1-1,2-1.6,2.8c-2,2.6-4.3,3.9-6.8,3.9c-2.5,0-4.1-1.3-5-3.9c-0.2-0.7-0.3-1.5-0.3-2.3
		c0-1,0.1-2.2,0.4-3.4c0.5-2.3,1.4-4.2,2.5-5.7c2-2.6,4.3-3.9,6.8-3.9c1.9,0,3.4,0.6,4.3,1.8c0.7,0.9,1.1,1.9,1.1,3
		c0,0.4-0.1,0.8-0.2,1.2c-0.4,1.7-1.4,3.2-2.8,4.5c-1.4,1.3-3.2,1.9-5.3,1.9h-1.3l0.1-0.2l1.9-2.7c1.2,0,2.2-0.3,2.8-1
		c0.7-0.6,1.1-1.5,1.4-2.6c0.1-0.3,0.1-0.5,0.1-0.8c0-0.6-0.2-1-0.5-1.4c-0.5-0.6-1.2-0.9-2.2-0.9c-1.4,0-2.6,0.7-3.6,2.2
		c-0.7,1.1-1.3,2.6-1.7,4.5c-0.3,1.4-0.5,2.5-0.5,3.4c0,0.4,0,0.8,0.1,1.1c0.4,1.5,1.3,2.2,2.5,2.2c1.3,0,2.5-0.7,3.6-2.2l4-1.6
		H150.2z"/>
	<path d="M153.7,32.7l2.3-10c0.5-2.4,1.4-4.3,2.5-5.7c2-2.6,4.3-3.9,6.8-3.9h2.3l-0.1,0.2l-1.9,2.7h-1c-1.3,0-2.5,0.7-3.6,2.2
		c-0.7,0.9-1.3,2.4-1.7,4.5l-2,8.5l-3.6,1.5H153.7z"/>
	<path d="M167,30.3c0.1-0.6,0.4-1.1,0.9-1.5c0.5-0.4,1-0.6,1.6-0.6c0.6,0,1,0.2,1.3,0.6c0.2,0.3,0.3,0.6,0.3,1l-0.1,0.5
		c-0.2,0.6-0.5,1.1-0.9,1.5c-0.5,0.4-1,0.6-1.6,0.6c-0.6,0-1-0.2-1.3-0.6c-0.2-0.3-0.3-0.6-0.3-0.9L167,30.3z"/>
	<path d="M177.1,30.3c0.1-0.6,0.4-1.1,0.9-1.5c0.5-0.4,1-0.6,1.6-0.6c0.6,0,1,0.2,1.3,0.6c0.2,0.3,0.3,0.6,0.3,1l-0.1,0.5
		c-0.2,0.6-0.5,1.1-0.9,1.5c-0.5,0.4-1,0.6-1.6,0.6c-0.6,0-1-0.2-1.3-0.6c-0.2-0.3-0.3-0.6-0.3-0.9L177.1,30.3z"/>
	<path d="M187.3,30.3c0.1-0.6,0.4-1.1,0.9-1.5c0.5-0.4,1-0.6,1.6-0.6s1,0.2,1.3,0.6c0.2,0.3,0.3,0.6,0.3,1l-0.1,0.5
		c-0.2,0.6-0.5,1.1-0.9,1.5c-0.5,0.4-1,0.6-1.6,0.6c-0.6,0-1-0.2-1.3-0.6c-0.2-0.3-0.3-0.6-0.3-0.9L187.3,30.3z"/>
</g>
</svg>
